<svg xmlns="http://www.w3.org/2000/svg" viewBox="0 0 1600 1000" preserveAspectRatio="none">
<defs>
  <linearGradient id="a" x1="0" y1="0" x2="1" y2="1"><stop stop-color="#081626"/><stop offset=".48" stop-color="#102844"/><stop offset="1" stop-color="#07121e"/></linearGradient>
  <radialGradient id="b" cx=".15" cy=".16" r=".6"><stop stop-color="#4aa5ff" stop-opacity=".34"/><stop offset="1" stop-color="#4aa5ff" stop-opacity="0"/></radialGradient>
  <radialGradient id="c" cx=".86" cy=".22" r=".58"><stop stop-color="#63e6d5" stop-opacity=".22"/><stop offset="1" stop-color="#63e6d5" stop-opacity="0"/></radialGradient>
  <pattern id="p" width="42" height="42" patternUnits="userSpaceOnUse"><path d="M42 0H0V42" fill="none" stroke="#dff7ff" stroke-opacity=".05"/></pattern>
</defs>
<rect width="1600" height="1000" fill="url(#a)"/>
<rect width="1600" height="1000" fill="url(#b)"/>
<rect width="1600" height="1000" fill="url(#c)"/>
<rect width="1600" height="1000" fill="url(#p)"/>
<g fill="none" stroke="#8fe7ff" stroke-opacity=".16">
  <path d="M0 690C220 540 340 760 545 670s250-300 472-190 296 40 583-130" stroke-width="2"/>
  <path d="M0 760c240-150 410 90 640-20s250-250 455-190 310 30 505-60" stroke-width="1"/>
  <circle cx="1220" cy="290" r="160" stroke-width="1"/>
  <circle cx="1220" cy="290" r="85" stroke-width="2"/>
  <path d="M1135 290h170M1220 205v170" stroke-width="2"/>
</g>
</svg>